<svg width="108" height="17" viewBox="0 0 108 17" fill="none" xmlns="http://www.w3.org/2000/svg">
<path d="M13.126 0.359375V16H9.90332L3.61914 5.51562V16H0.396484V0.359375H3.61914L9.91406 10.8545V0.359375H13.126ZM26.4248 13.4863V16H18.0996V13.4863H26.4248ZM19.1523 0.359375V16H15.9297V0.359375H19.1523ZM25.3398 6.72949V9.17871H18.0996V6.72949H25.3398ZM26.4141 0.359375V2.88379H18.0996V0.359375H26.4141ZM32.0752 13.5186L35.1904 0.359375H36.9307L37.3281 2.55078L34.0088 16H32.1396L32.0752 13.5186ZM30.4746 0.359375L33.0527 13.5186L32.8379 16H30.7539L27.2842 0.359375H30.4746ZM40.0674 13.4648L42.6133 0.359375H45.8037L42.3447 16H40.2607L40.0674 13.4648ZM37.9082 0.359375L41.0449 13.5723L40.959 16H39.0898L35.749 2.54004L36.1787 0.359375H37.9082ZM55.6973 11.9072C55.6973 11.6279 55.6543 11.3773 55.5684 11.1553C55.4896 10.9261 55.3392 10.7184 55.1172 10.5322C54.8952 10.3389 54.5837 10.1491 54.1826 9.96289C53.7816 9.77669 53.2624 9.58333 52.625 9.38281C51.916 9.15365 51.2428 8.89583 50.6055 8.60938C49.9753 8.32292 49.4167 7.98991 48.9297 7.61035C48.4499 7.22363 48.0703 6.77604 47.791 6.26758C47.5189 5.75911 47.3828 5.16829 47.3828 4.49512C47.3828 3.84342 47.526 3.2526 47.8125 2.72266C48.099 2.18555 48.5 1.72721 49.0156 1.34766C49.5312 0.960938 50.14 0.663737 50.8418 0.456055C51.5508 0.248372 52.3278 0.144531 53.1729 0.144531C54.3258 0.144531 55.332 0.352214 56.1914 0.767578C57.0508 1.18294 57.7168 1.75228 58.1895 2.47559C58.6693 3.19889 58.9092 4.02604 58.9092 4.95703H55.708C55.708 4.4987 55.6113 4.09766 55.418 3.75391C55.2318 3.40299 54.9453 3.12728 54.5586 2.92676C54.179 2.72624 53.6992 2.62598 53.1191 2.62598C52.5605 2.62598 52.0951 2.71191 51.7227 2.88379C51.3503 3.0485 51.071 3.27409 50.8848 3.56055C50.6986 3.83984 50.6055 4.15495 50.6055 4.50586C50.6055 4.77083 50.6699 5.01074 50.7988 5.22559C50.9349 5.44043 51.1354 5.64095 51.4004 5.82715C51.6654 6.01335 51.9912 6.1888 52.3779 6.35352C52.7646 6.51823 53.2122 6.67936 53.7207 6.83691C54.5729 7.09473 55.3213 7.38477 55.9658 7.70703C56.6175 8.0293 57.1618 8.39095 57.5986 8.79199C58.0355 9.19303 58.3649 9.64779 58.5869 10.1562C58.8089 10.6647 58.9199 11.2412 58.9199 11.8857C58.9199 12.5661 58.7874 13.1748 58.5225 13.7119C58.2575 14.249 57.8743 14.7038 57.373 15.0762C56.8717 15.4486 56.2738 15.7314 55.5791 15.9248C54.8844 16.1182 54.1074 16.2148 53.248 16.2148C52.4746 16.2148 51.7119 16.1146 50.96 15.9141C50.208 15.7064 49.5241 15.3949 48.9082 14.9795C48.2995 14.5641 47.8125 14.0342 47.4473 13.3896C47.082 12.7451 46.8994 11.9824 46.8994 11.1016H50.1328C50.1328 11.5885 50.208 12.0003 50.3584 12.3369C50.5088 12.6735 50.7201 12.9456 50.9922 13.1533C51.2715 13.361 51.6009 13.5114 51.9805 13.6045C52.3672 13.6976 52.7897 13.7441 53.248 13.7441C53.8066 13.7441 54.265 13.6654 54.623 13.5078C54.9883 13.3503 55.2568 13.1318 55.4287 12.8525C55.6077 12.5732 55.6973 12.2581 55.6973 11.9072ZM61.0684 14.5068C61.0684 14.0485 61.2259 13.6654 61.541 13.3574C61.8633 13.0495 62.2894 12.8955 62.8193 12.8955C63.3493 12.8955 63.7718 13.0495 64.0869 13.3574C64.4092 13.6654 64.5703 14.0485 64.5703 14.5068C64.5703 14.9652 64.4092 15.3483 64.0869 15.6562C63.7718 15.9642 63.3493 16.1182 62.8193 16.1182C62.2894 16.1182 61.8633 15.9642 61.541 15.6562C61.2259 15.3483 61.0684 14.9652 61.0684 14.5068ZM72.1006 13.7979C72.4801 13.7979 72.8167 13.7262 73.1104 13.583C73.404 13.4326 73.6331 13.2249 73.7979 12.96C73.9697 12.6878 74.0592 12.3691 74.0664 12.0039H76.9775C76.9704 12.8203 76.752 13.5472 76.3223 14.1846C75.8926 14.8148 75.3161 15.3125 74.5928 15.6777C73.8695 16.0358 73.0602 16.2148 72.165 16.2148C71.2627 16.2148 70.4749 16.0645 69.8018 15.7637C69.1357 15.4629 68.5807 15.0475 68.1367 14.5176C67.6927 13.9805 67.3597 13.3574 67.1377 12.6484C66.9157 11.9323 66.8047 11.166 66.8047 10.3496V10.0381C66.8047 9.21452 66.9157 8.44824 67.1377 7.73926C67.3597 7.02311 67.6927 6.40007 68.1367 5.87012C68.5807 5.33301 69.1357 4.91406 69.8018 4.61328C70.4678 4.3125 71.2484 4.16211 72.1436 4.16211C73.096 4.16211 73.9303 4.34473 74.6465 4.70996C75.3698 5.0752 75.9355 5.59798 76.3438 6.27832C76.7591 6.9515 76.9704 7.75 76.9775 8.67383H74.0664C74.0592 8.28711 73.9769 7.9362 73.8193 7.62109C73.6689 7.30599 73.4469 7.05534 73.1533 6.86914C72.8669 6.67578 72.5124 6.5791 72.0898 6.5791C71.6387 6.5791 71.2699 6.67578 70.9834 6.86914C70.6969 7.05534 70.4749 7.31315 70.3174 7.64258C70.1598 7.96484 70.0488 8.33366 69.9844 8.74902C69.9271 9.15723 69.8984 9.58691 69.8984 10.0381V10.3496C69.8984 10.8008 69.9271 11.234 69.9844 11.6494C70.0417 12.0648 70.1491 12.4336 70.3066 12.7559C70.4714 13.0781 70.6969 13.3324 70.9834 13.5186C71.2699 13.7048 71.6423 13.7979 72.1006 13.7979ZM78.2773 10.3066V10.0811C78.2773 9.22884 78.3991 8.44466 78.6426 7.72852C78.8861 7.00521 79.2406 6.37858 79.7061 5.84863C80.1715 5.31868 80.7445 4.9069 81.4248 4.61328C82.1051 4.3125 82.8857 4.16211 83.7666 4.16211C84.6475 4.16211 85.4316 4.3125 86.1191 4.61328C86.8066 4.9069 87.3831 5.31868 87.8486 5.84863C88.3213 6.37858 88.6794 7.00521 88.9229 7.72852C89.1663 8.44466 89.2881 9.22884 89.2881 10.0811V10.3066C89.2881 11.1517 89.1663 11.9359 88.9229 12.6592C88.6794 13.3753 88.3213 14.002 87.8486 14.5391C87.3831 15.069 86.8102 15.4808 86.1299 15.7744C85.4495 16.068 84.6689 16.2148 83.7881 16.2148C82.9072 16.2148 82.123 16.068 81.4355 15.7744C80.7552 15.4808 80.1787 15.069 79.7061 14.5391C79.2406 14.002 78.8861 13.3753 78.6426 12.6592C78.3991 11.9359 78.2773 11.1517 78.2773 10.3066ZM81.3711 10.0811V10.3066C81.3711 10.7936 81.4141 11.2484 81.5 11.6709C81.5859 12.0934 81.722 12.4658 81.9082 12.7881C82.1016 13.1032 82.3522 13.3503 82.6602 13.5293C82.9681 13.7083 83.3441 13.7979 83.7881 13.7979C84.2178 13.7979 84.5866 13.7083 84.8945 13.5293C85.2025 13.3503 85.4495 13.1032 85.6357 12.7881C85.8219 12.4658 85.958 12.0934 86.0439 11.6709C86.137 11.2484 86.1836 10.7936 86.1836 10.3066V10.0811C86.1836 9.6084 86.137 9.16439 86.0439 8.74902C85.958 8.3265 85.8184 7.9541 85.625 7.63184C85.4388 7.30241 85.1917 7.0446 84.8838 6.8584C84.5758 6.6722 84.2035 6.5791 83.7666 6.5791C83.3298 6.5791 82.9574 6.6722 82.6494 6.8584C82.3486 7.0446 82.1016 7.30241 81.9082 7.63184C81.722 7.9541 81.5859 8.3265 81.5 8.74902C81.4141 9.16439 81.3711 9.6084 81.3711 10.0811ZM94.2832 6.7832V16H91.1787V4.37695H94.0898L94.2832 6.7832ZM93.8535 9.78027H92.9941C92.9941 8.97103 93.0908 8.22624 93.2842 7.5459C93.4847 6.8584 93.7747 6.264 94.1543 5.7627C94.541 5.25423 95.0173 4.86035 95.583 4.58105C96.1488 4.30176 96.804 4.16211 97.5488 4.16211C98.0645 4.16211 98.5371 4.24089 98.9668 4.39844C99.3965 4.54883 99.7653 4.78874 100.073 5.11816C100.388 5.44043 100.632 5.86296 100.804 6.38574C100.976 6.90137 101.062 7.52083 101.062 8.24414V16H97.9678V8.58789C97.9678 8.05794 97.8962 7.64974 97.7529 7.36328C97.6097 7.07682 97.4056 6.8763 97.1406 6.76172C96.8828 6.64714 96.5713 6.58984 96.2061 6.58984C95.805 6.58984 95.4541 6.6722 95.1533 6.83691C94.8597 7.00163 94.6162 7.23079 94.4229 7.52441C94.2295 7.81087 94.0863 8.14746 93.9932 8.53418C93.9001 8.9209 93.8535 9.33626 93.8535 9.78027ZM100.771 9.42578L99.665 9.56543C99.665 8.80632 99.7581 8.10091 99.9443 7.44922C100.138 6.79753 100.421 6.22461 100.793 5.73047C101.173 5.23633 101.642 4.85319 102.2 4.58105C102.759 4.30176 103.403 4.16211 104.134 4.16211C104.692 4.16211 105.201 4.24447 105.659 4.40918C106.118 4.56673 106.508 4.82096 106.83 5.17188C107.16 5.51562 107.41 5.9668 107.582 6.52539C107.761 7.08398 107.851 7.7679 107.851 8.57715V16H104.746V8.57715C104.746 8.04004 104.674 7.63184 104.531 7.35254C104.395 7.06608 104.195 6.86914 103.93 6.76172C103.672 6.64714 103.364 6.58984 103.006 6.58984C102.633 6.58984 102.308 6.66504 102.028 6.81543C101.749 6.95866 101.516 7.15918 101.33 7.41699C101.144 7.6748 101.004 7.97559 100.911 8.31934C100.818 8.65592 100.771 9.02474 100.771 9.42578Z" fill="#FC4308"/>
</svg>
